#!OML:ASF F:\VICON\USERDATA\INSTALL\rory3\rory3.ASF
:FULLY-SPECIFIED
:DEGREES
110
root -0.0428158 17.6384 -14.9954 18.4774 -0.0965953 5.82082
lowerback 29.0514 -0.119721 -3.52413
upperback 4.77513 -1.38135 -1.4626
thorax -10.6336 -0.528869 0.888442
lowerneck -14.3976 -3.30181 -8.03513
upperneck -9.59319 -3.02511 7.75238
head -0.352454 -1.2333 3.87103
rclavicle -9.93923e-016 9.0944e-015
rhumerus -35.7106 -0.386586 -76.8242
rradius 26.5388
rwrist 15.2192
rhand -30.7589 2.15582
rfingers 7.12502
rthumb -4.05034 -27.7854
lclavicle -9.93923e-016 9.0944e-015
lhumerus -34.6128 -0.579629 77.1313
lradius 28.2312
lwrist 0.706064
lhand -19.0234 27.0397
lfingers 7.12502
lthumb 7.28259 56.8944
rfemur -47.7231 10.3376 7.39789
rtibia 53.8925
rfoot -25.6335 -13.803
rtoes -3.50915
lfemur -46.5812 -2.25954 -24.6491
ltibia 48.1322
lfoot -17.0555 1.14915
ltoes -3.81633
111
root -0.040323 17.6025 -14.9892 18.7789 0.0451356 5.64548
lowerback 29.1439 -0.161108 -3.24038
upperback 4.84499 -1.33819 -1.37234
thorax -10.6061 -0.518146 0.811981
lowerneck -14.6106 -3.35134 -8.05317
upperneck -9.58879 -3.07346 7.75157
head -0.311113 -1.25324 3.87011
rclavicle -1.59028e-014 -1.09332e-015
rhumerus -35.9155 -0.584532 -76.6833
rradius 26.3464
rwrist 15.2964
rhand -30.8148 1.99264
rfingers 7.12502
rthumb -4.10433 -27.9476
lclavicle -1.59028e-014 -1.09332e-015
lhumerus -34.7649 -0.792525 77.1773
lradius 28.1116
lwrist 0.751954
lhand -19.0426 27.0356
lfingers 7.12502
lthumb 7.26404 56.8909
rfemur -48.3084 10.3261 7.52401
rtibia 54.4023
rfoot -25.8459 -13.8653
rtoes -3.31739
lfemur -47.2446 -2.19929 -24.4544
ltibia 48.7746
lfoot -17.2448 0.780297
ltoes -2.49575
112
root -0.0393544 17.5648 -14.9867 19.091 0.0592997 5.52596
lowerback 29.2704 -0.134226 -3.11302
upperback 4.86203 -1.26202 -1.307
thorax -10.654 -0.485629 0.785649
lowerneck -14.6808 -3.36069 -8.07545
upperneck -9.59649 -3.07552 7.7995
head -0.300201 -1.25191 3.89119
rclavicle 3.8763e-015 -7.45443e-015
rhumerus -36.1205 -0.716588 -76.5822
rradius 26.0482
rwrist 15.2698
rhand -30.9338 1.91838
rfingers 7.12502
rthumb -4.21923 -28.0196
lclavicle 3.8763e-015 -7.45443e-015
lhumerus -35.0349 -1.07818 77.218
lradius 28.0636
lwrist 0.893021
lhand -19.2318 26.9653
lfingers 7.12502
lthumb 7.08137 56.8269
rfemur -49.0032 10.3511 7.56319
rtibia 54.9479
rfoot -25.9401 -13.926
rtoes -3.11325
lfemur -47.9565 -2.05655 -24.3558
ltibia 49.4606
lfoot -17.4651 0.497085
ltoes -2.14948
113
root -0.0403028 17.5276 -14.9853 19.3384 0.136817 5.40647
lowerback 29.5315 -0.138788 -2.95879
upperback 4.88199 -1.22191 -1.24043
thorax -10.7654 -0.469353 0.759716
lowerneck -14.7689 -3.36749 -8.0774
upperneck -9.70075 -3.07165 7.85633
head -0.319457 -1.24762 3.91249
rclavicle -6.85807e-015 -1.2921e-015
rhumerus -36.4004 -0.68934 -76.561
rradius 26.0027
rwrist 15.0346
rhand -30.6913 1.59097
rfingers 7.12502
rthumb -3.98503 -28.3515
lclavicle -6.85807e-015 -1.2921e-015
lhumerus -35.3256 -1.28328 77.2224
lradius 28.0705
lwrist 1.00997
lhand -19.5582 26.9681
lfingers 7.12502
lthumb 6.76632 56.8399
rfemur -49.64 10.4414 7.60261
rtibia 55.5288
rfoot -26.0747 -14.0798
rtoes -3.13446
lfemur -48.6125 -1.97414 -24.2235
ltibia 50.1559
lfoot -17.7575 0.278873
ltoes -2.27606
114
root -0.0391862 17.4891 -14.9811 19.5496 0.35798 5.28051
lowerback 29.7622 -0.231687 -2.68713
upperback 4.93127 -1.25119 -1.15087
thorax -10.8274 -0.489446 0.717706
lowerneck -14.8938 -3.37994 -8.12514
upperneck -9.82623 -3.06621 7.883
head -0.339907 -1.24051 3.93205
rclavicle 2.31584e-014 1.45113e-014
rhumerus -36.6638 -0.617276 -76.52
rradius 25.9798
rwrist 15.0006
rhand -30.6199 1.58907
rfingers 7.12502
rthumb -3.91611 -28.3547
lclavicle 2.31584e-014 1.45113e-014
lhumerus -35.6629 -1.44687 77.27
lradius 28.1734
lwrist 1.20405
lhand -19.8328 26.8213
lfingers 7.12502
lthumb 6.50127 56.7015
rfemur -50.1664 10.3672 7.7433
rtibia 56.1594
rfoot -26.2917 -14.2223
rtoes -3.27324
lfemur -49.202 -2.04771 -24.0315
ltibia 50.7934
lfoot -18.0169 0.0823784
ltoes -1.87535
115
root -0.0374905 17.449 -14.974 19.7777 0.497446 5.12167
lowerback 29.9658 -0.274394 -2.41927
upperback 4.94901 -1.22007 -1.08486
thorax -10.9142 -0.482107 0.628199
lowerneck -14.9432 -3.39736 -8.11448
upperneck -9.91211 -3.08294 7.91041
head -0.358701 -1.248 3.93926
rclavicle 1.73937e-014 2.88238e-015
rhumerus -36.9296 -0.709107 -76.4503
rradius 25.77
rwrist 15.1844
rhand -30.8128 2.19735
rfingers 7.12502
rthumb -4.10239 -27.7429
lclavicle 1.73937e-014 2.88238e-015
lhumerus -36.0505 -1.88968 77.3897
lradius 28.3356
lwrist 1.54714
lhand -20.0187 26.7909
lfingers 7.12502
lthumb 6.32174 56.6765
rfemur -50.7164 10.2815 7.93153
rtibia 56.8599
rfoot -26.6202 -14.2832
rtoes -3.60919
lfemur -49.7892 -2.0293 -23.8403
ltibia 51.3276
lfoot -18.2375 -0.035031
ltoes -2.07638
116
root -0.0307884 17.4108 -14.9675 20.0844 0.557384 5.30084
lowerback 30.2152 -0.298349 -2.40862
upperback 4.88736 -1.26031 -1.11958
thorax -11.1105 -0.497764 0.600476
lowerneck -14.9368 -3.39526 -8.02974
upperneck -9.99569 -3.09061 7.87444
head -0.389682 -1.25488 3.90989
rclavicle -2.98177e-015 9.93923e-016
rhumerus -37.3057 -0.810023 -76.3715
rradius 25.6802
rwrist 15.2786
rhand -30.8532 2.82757
rfingers 7.12502
rthumb -4.14136 -27.1119
lclavicle -2.98177e-015 9.93923e-016
lhumerus -36.4779 -2.32024 77.526
lradius 28.5217
lwrist 2.05151
lhand -19.8052 27.2513
lfingers 7.12502
lthumb 6.52785 57.1307
rfemur -51.3814 10.0122 7.72277
rtibia 57.593
rfoot -26.9117 -14.2345
rtoes -3.98418
lfemur -50.411 -2.07593 -24.0577
ltibia 51.822
lfoot -18.4816 -0.0644358
ltoes -3.21155
117
root -0.013382 17.3692 -14.9632 20.5548 0.52723 6.39383
lowerback 30.364 -0.318979 -3.03588
upperback 4.82943 -1.52313 -1.39484
thorax -11.2366 -0.59487 0.751376
lowerneck -15.0462 -3.39366 -8.00694
upperneck -10.1156 -3.07754 7.89682
head -0.412891 -1.24648 3.91449
rclavicle 5.76476e-015 6.55989e-015
rhumerus -37.6091 -0.868413 -76.3115
rradius 25.7462
rwrist 15.1073
rhand -30.8225 3.18576
rfingers 7.12502
rthumb -4.11178 -26.7543
lclavicle 5.76476e-015 6.55989e-015
lhumerus -36.8004 -2.67807 77.6693
lradius 28.7282
lwrist 2.66706
lhand -19.5008 27.6903
lfingers 7.12502
lthumb 6.82176 57.5604
rfemur -52.2263 9.17606 6.51938
rtibia 58.4096
rfoot -27.1135 -13.9338
rtoes -4.517
lfemur -51.0711 -2.46293 -25.303
ltibia 52.2671
lfoot -18.7425 -0.0325233
ltoes -3.74527
118
root -0.0119811 17.3188 -14.9549 20.8386 0.560169 6.54603
lowerback 30.4567 -0.30397 -3.13539
upperback 4.89648 -1.53465 -1.38781
thorax -11.2014 -0.596428 0.82213
lowerneck -15.1912 -3.41764 -8.00334
upperneck -10.2874 -3.09011 7.96527
head -0.44417 -1.24956 3.9383
rclavicle 9.14409e-015 -4.57205e-015
rhumerus -37.7621 -0.85673 -76.2927
rradius 25.7492
rwrist 14.962
rhand -30.908 3.1288
rfingers 7.12502
rthumb -4.19426 -26.8097
lclavicle 9.14409e-015 -4.57205e-015
lhumerus -37.0531 -2.93843 77.756
lradius 28.9356
lwrist 3.2019
lhand -19.1687 27.8634
lfingers 7.12502
lthumb 7.14228 57.7229
rfemur -52.8987 8.94473 6.36216
rtibia 59.1753
rfoot -27.3618 -13.8495
rtoes -4.63285
lfemur -51.69 -2.45199 -25.4914
ltibia 52.8351
lfoot -18.9322 -0.199306
ltoes -3.54864
119
root -0.0103811 17.2692 -14.9446 21.0569 0.605956 6.64168
lowerback 30.6856 -0.291101 -3.16194
upperback 4.90296 -1.5315 -1.36105
thorax -11.3064 -0.590766 0.869649
lowerneck -15.1988 -3.44387 -8.02324
upperneck -10.4857 -3.11269 7.99418
head -0.506961 -1.25967 3.95326
rclavicle -2.14687e-014 -6.36111e-015
rhumerus -37.9896 -0.978914 -76.2042
rradius 25.6866
rwrist 14.9566
rhand -30.878 2.65857
rfingers 7.12502
rthumb -4.16537 -27.2805
lclavicle -2.14687e-014 -6.36111e-015
lhumerus -37.4411 -3.25199 77.8994
lradius 29.1613
lwrist 3.75381
lhand -18.9534 27.9831
lfingers 7.12502
lthumb 7.35014 57.8354
rfemur -53.4885 8.7629 6.26596
rtibia 59.942
rfoot -27.6108 -13.7068
rtoes -4.36778
lfemur -52.2504 -2.46857 -25.6041
ltibia 53.4498
lfoot -19.1683 -0.332373
ltoes -3.43511
